<?xml version="1.0" encoding="UTF-8" standalone="no"?>
<svg
   width="39.654099"
   height="33.055069"
   viewBox="0 0 39.654099 33.055069"
   fill="none"
   version="1.1"
   id="svg24"
   sodipodi:docname="logo_vorterix-horizontal.svg"
   inkscape:version="1.2.2 (732a01da63, 2022-12-09)"
   xmlns:inkscape="http://www.inkscape.org/namespaces/inkscape"
   xmlns:sodipodi="http://sodipodi.sourceforge.net/DTD/sodipodi-0.dtd"
   xmlns="http://www.w3.org/2000/svg"
   xmlns:svg="http://www.w3.org/2000/svg">
  <defs
     id="defs28" />
  <sodipodi:namedview
     id="namedview26"
     pagecolor="#ffffff"
     bordercolor="#000000"
     borderopacity="0.25"
     inkscape:showpageshadow="2"
     inkscape:pageopacity="0.0"
     inkscape:pagecheckerboard="0"
     inkscape:deskcolor="#d1d1d1"
     showgrid="false"
     inkscape:zoom="4.908153"
     inkscape:cx="69.985594"
     inkscape:cy="6.6216355"
     inkscape:window-width="1920"
     inkscape:window-height="1013"
     inkscape:window-x="1991"
     inkscape:window-y="-9"
     inkscape:window-maximized="1"
     inkscape:current-layer="svg24" />
  <path
     d="m 9.00902,18.092263 -8.219213,4.7499 c -0.428286,0.2475 -0.6930052,0.7059 -0.6930052,1.2009 v 8.6088 c 0,0.3099 0.3357412,0.5036 0.6047652,0.3487 l 16.942033,-9.8033 c 0.2647,-0.1528 0.269,-0.5337 0.0065,-0.693 l -7.2292,-4.3947 c -0.43263,-0.2626 -0.97498,-0.2691 -1.41403,-0.0151 z"
     fill="#939393"
     id="path2" />
  <path
     d="m 31.0734,18.072963 7.8597,4.7176 c 0.4176,0.2496 0.6737,0.7016 0.6737,1.188 v 8.6087 c 0,0.3143 -0.3422,0.508 -0.6112,0.3444 l -16.2857,-9.7903 c -0.2561,-0.155 -0.2604,-0.5252 -0.0086,-0.6866 l 6.9193,-4.3689 c 0.4434,-0.2798 1.0051,-0.2863 1.4528,-0.0172 z"
     fill="#939393"
     id="path4" />
  <path
     d="M 39.6541,0.40345175 V 8.6398828 c 0,0.48209 -0.2496,0.92758 -0.6607,1.18158 L 20.9946,20.890163 c -0.6865,0.4218 -1.5517,0.424 -2.2404,0.0021 L 0.662875,9.8192628 C 0.251806,9.5674628 0,9.1198228 0,8.6377328 V 0.40345175 c 0,-0.312068 0.342198,-0.505765 0.60907,-0.344351 L 19.0964,11.134263 c 0.4197,0.2518 0.9426,0.2518 1.3623,0 L 39.0429,0.05694875 c 0.269,-0.159262 0.6091,0.034435 0.6091,0.346503 z"
     fill="#939393"
     id="path6" />
</svg>
